<svg xmlns="http://www.w3.org/2000/svg" xmlns:xlink="http://www.w3.org/1999/xlink" width="500"
    zoomAndPan="magnify" viewBox="0 0 375 374.999991" height="500"
    preserveAspectRatio="xMidYMid meet" version="1.0">
    <defs>
        <clipPath id="16c690e2a1">
            <path d="M 34.140625 0 L 349.050781 0 L 349.050781 375 L 34.140625 375 Z M 34.140625 0 "
                clip-rule="nonzero" />
        </clipPath>
    </defs>
    <g clip-path="url(#16c690e2a1)">
        <path fill="#5f28a6"
            d="M 340.84375 86.753906 C 338.511719 85.027344 294.210938 52.675781 238.308594 39.109375 C 230.363281 25.367188 207.890625 4.226562 193.613281 0.273438 C 192.953125 0.0898438 192.277344 0 191.597656 0 C 190.921875 0 190.242188 0.0898438 189.585938 0.273438 C 175.304688 4.226562 152.835938 25.367188 144.890625 39.109375 C 88.980469 52.675781 44.683594 85.027344 42.351562 86.753906 C 37.210938 90.554688 34.140625 96.636719 34.140625 103.035156 C 34.140625 117.367188 34.941406 244.613281 62.636719 297.699219 C 75.460938 322.273438 100.078125 342.597656 135.808594 358.109375 C 162.195312 369.5625 185.257812 374.15625 187.792969 374.640625 C 189.042969 374.878906 190.324219 375 191.597656 375 C 192.875 375 194.152344 374.878906 195.398438 374.640625 C 197.941406 374.15625 221.003906 369.5625 247.390625 358.109375 C 283.121094 342.597656 307.734375 322.273438 320.558594 297.699219 C 348.253906 244.613281 349.054688 117.367188 349.054688 103.035156 C 349.054688 96.636719 345.984375 90.554688 340.84375 86.753906 "
            fill-opacity="1" fill-rule="nonzero" />
    </g>
    <path fill="#886add"
        d="M 169.753906 216.964844 L 169.304688 218.550781 C 169.050781 219.445312 168.828125 220.386719 168.644531 221.347656 L 168.445312 222.414062 L 168.296875 223.507812 C 168.175781 224.429688 168.074219 225.378906 167.996094 226.414062 L 167.960938 226.863281 L 167.90625 227.960938 C 167.824219 229.570312 167.800781 231.195312 167.824219 232.796875 L 167.855469 234.742188 L 165.964844 234.277344 C 159.117188 232.597656 152.9375 232.246094 148.957031 232.246094 L 148.371094 232.246094 L 148.207031 232.210938 C 147.515625 232.058594 146.847656 231.898438 146.230469 231.734375 L 146.015625 231.671875 C 145.769531 231.601562 145.53125 231.535156 145.292969 231.460938 L 144.195312 231.128906 L 144.285156 228.15625 L 144.285156 227.886719 L 144.40625 227.605469 C 144.667969 226.992188 144.96875 226.300781 145.296875 225.566406 L 145.605469 224.875 L 145.578125 224.875 L 146.558594 222.878906 C 147.273438 221.425781 147.96875 220.128906 148.625 219.027344 L 149.152344 218.148438 L 150.699219 216.027344 C 151.476562 215.105469 152.199219 214.480469 152.914062 214.128906 L 153.363281 213.90625 Z M 127.9375 151.199219 C 121.042969 152.332031 115.480469 154.617188 111.363281 158.003906 C 117.464844 159.375 131.089844 163.382812 134.023438 172.257812 L 134.722656 174.378906 L 132.492188 174.226562 C 132.476562 174.222656 130.941406 174.117188 128.554688 174.117188 C 122.941406 174.117188 109.667969 174.746094 102.765625 180.320312 L 127.578125 204.464844 L 125.742188 205.425781 C 125.4375 205.585938 95.34375 221.488281 90.574219 240.121094 C 89.1875 245.535156 90.113281 250.726562 93.328125 255.546875 C 110.074219 280.667969 129.949219 284.574219 130.148438 284.609375 L 131.425781 284.847656 L 129.535156 333.503906 L 127.371094 332.234375 C 121.40625 328.726562 118.144531 326.15625 118.007812 326.046875 L 117.433594 325.59375 L 117.515625 316.761719 L 117.707031 297.140625 C 117.292969 297.148438 116.882812 297.152344 116.476562 297.152344 C 104.714844 297.152344 95.519531 293.894531 89.15625 287.472656 C 80.203125 278.433594 80.054688 266.324219 80.066406 264.976562 L 83.066406 265 C 83.0625 265.761719 83.117188 280.765625 95.78125 288.925781 C 87.773438 278.007812 85.535156 258.355469 84.921875 249.296875 L 75.667969 263.804688 L 74.398438 261.839844 C 74.132812 261.425781 67.914062 251.480469 72.335938 231.472656 C 75.976562 214.996094 90.777344 209.515625 96.445312 208 C 88.816406 197.851562 72.117188 197.464844 71.9375 197.464844 L 70.179688 197.433594 L 70.484375 195.703125 C 70.511719 195.5625 73.027344 181.464844 77.988281 169.144531 C 78.375 168.179688 78.773438 167.175781 79.171875 166.152344 L 79.210938 166.058594 C 79.210938 166.058594 79.265625 165.960938 79.265625 165.953125 L 80.671875 162.261719 C 83.875 153.839844 87.082031 144.753906 88.441406 140.867188 C 82.167969 141.199219 75.660156 145.710938 75.59375 145.761719 L 73.382812 143.875 C 78.972656 132.425781 97.394531 121.0625 103.582031 117.484375 L 103.429688 116.480469 C 105.359375 116.195312 107.3125 116.054688 109.242188 116.054688 C 137.695312 116.054688 159.53125 147.203125 170.015625 165.769531 C 173.253906 171.507812 178.445312 175.992188 184.636719 178.398438 L 185.59375 178.769531 L 185.59375 182.078125 L 183.5625 181.316406 C 177.304688 178.953125 171.90625 174.546875 168.359375 168.90625 L 157.976562 152.402344 C 155.804688 151.933594 147.890625 150.378906 138.75 150.378906 C 135.84375 150.378906 133.042969 150.535156 130.4375 150.847656 L 129.5625 150.949219 L 129.554688 150.933594 Z M 111.445312 301.058594 L 112.464844 301.410156 L 112.246094 324.074219 L 109.90625 322.410156 C 109.503906 322.121094 109.101562 321.832031 108.703125 321.542969 L 108.097656 321.101562 C 107.910156 320.964844 107.207031 320.429688 107.207031 320.429688 C 105.910156 319.457031 104.777344 318.582031 103.757812 317.757812 C 103.609375 317.640625 102.710938 316.902344 102.710938 316.902344 C 102.351562 316.609375 101.996094 316.316406 101.640625 316.019531 C 101.507812 315.90625 100.773438 315.273438 100.773438 315.273438 C 100.371094 314.929688 99.96875 314.582031 99.570312 314.230469 C 99.433594 314.113281 99.300781 313.992188 99.164062 313.867188 L 98.722656 313.46875 C 98.328125 313.113281 97.933594 312.761719 97.546875 312.402344 C 97.414062 312.277344 96.644531 311.546875 96.644531 311.546875 C 96.28125 311.207031 95.921875 310.867188 95.570312 310.519531 L 95.488281 310.441406 C 94.832031 309.796875 94.234375 309.199219 93.644531 308.59375 C 93.496094 308.441406 92.910156 307.816406 92.910156 307.816406 L 92.613281 307.503906 C 92.332031 307.210938 92.050781 306.917969 91.78125 306.621094 L 91.546875 306.355469 C 90.359375 305.054688 89.238281 303.765625 88.226562 302.523438 C 88.039062 302.296875 87.871094 302.078125 87.703125 301.863281 L 84.660156 298.023438 L 88.988281 299.144531 C 92.484375 300.046875 95.835938 300.167969 98.65625 300.167969 C 99.574219 300.167969 100.476562 300.15625 101.351562 300.140625 C 102.203125 300.128906 103.035156 300.113281 103.847656 300.113281 C 106.371094 300.113281 109.042969 300.226562 111.445312 301.058594 Z M 322.976562 244.722656 C 322.867188 245.75 322.722656 246.824219 322.527344 248.101562 L 319.558594 248.054688 C 319.484375 247.445312 319.398438 246.835938 319.304688 246.230469 L 318.621094 242.644531 L 318.394531 241.8125 L 318.605469 242.695312 L 319.242188 246.183594 C 319.957031 251.125 320.015625 255.988281 319.417969 260.699219 L 319.398438 260.851562 L 319.230469 261.332031 L 316.3125 260.792969 C 316.347656 259.660156 316.347656 258.535156 316.308594 257.445312 L 316.105469 254.242188 L 316 253.457031 L 316.078125 254.210938 L 316.25 257.402344 C 316.347656 261.816406 315.964844 266.105469 315.109375 270.203125 L 314.777344 271.597656 L 314.6875 271.761719 C 311.484375 277.867188 308.058594 282.433594 305.753906 285.191406 C 303.769531 287.5625 302.429688 288.824219 302.371094 288.878906 L 298.464844 292.546875 L 299.902344 287.382812 C 299.929688 287.289062 301.863281 280.203125 301.679688 273.234375 C 299.5 280.902344 294.058594 291.824219 280.5 295.820312 L 280.019531 294.828125 C 278.871094 295.289062 277.640625 295.65625 276.242188 295.960938 C 273.941406 296.457031 271.511719 296.707031 269.007812 296.707031 C 268.753906 296.707031 268.5 296.703125 268.25 296.699219 C 263.859375 296.609375 259.074219 295.832031 253.1875 294.246094 L 252.121094 293.957031 L 251.765625 284.84375 L 253.050781 284.609375 C 253.105469 284.601562 258.285156 283.605469 265.507812 279.367188 C 246.332031 275.4375 209.199219 260.359375 190.730469 247.269531 L 190.121094 246.832031 L 190.109375 246.851562 L 188.636719 245.730469 C 188.019531 245.261719 187.429688 244.796875 186.867188 244.335938 C 181.910156 240.261719 175.882812 237.15625 168.960938 235.09375 L 167.917969 234.78125 L 167.886719 233.699219 C 167.820312 231.269531 167.847656 229.105469 167.976562 227.074219 C 168.203125 223.664062 168.671875 220.785156 169.410156 218.277344 L 169.792969 216.976562 L 173.933594 217.75 C 174.851562 216.347656 176.921875 214.152344 180.9375 213.972656 C 181.136719 213.964844 181.355469 213.957031 181.589844 213.957031 C 184.039062 213.957031 187.800781 214.46875 191.917969 215.363281 C 196.847656 216.433594 206.726562 219.035156 217.464844 224.4375 C 230.957031 231.226562 270.832031 236.640625 279.777344 237.789062 C 279.554688 235.570312 278.902344 231.378906 276.976562 226.355469 C 276.667969 225.558594 274.371094 225.277344 272.523438 225.054688 C 269.554688 224.695312 266.191406 224.285156 264.46875 221.796875 C 263.082031 219.789062 263.179688 216.792969 263.28125 213.625 C 263.34375 211.722656 263.40625 209.757812 263.121094 208.140625 C 263.089844 207.945312 263.050781 207.761719 263.007812 207.585938 L 262.695312 208.445312 L 261.140625 207.515625 C 260.308594 207.023438 259.59375 206.609375 259.019531 206.285156 L 257.179688 205.246094 L 258.761719 203.851562 C 259.78125 202.957031 260.847656 202.0625 261.882812 201.199219 C 262.484375 200.699219 263.085938 200.195312 263.691406 199.679688 C 264.691406 198.824219 265.53125 198.078125 266.273438 197.371094 L 264.738281 195.59375 L 280.429688 180.320312 C 273.527344 174.746094 260.257812 174.117188 254.648438 174.117188 L 251.671875 174.125 L 253.125 171.820312 C 253.476562 171.261719 253.835938 170.707031 254.210938 170.164062 C 255.644531 168.148438 257.058594 166.398438 258.542969 164.804688 L 259.726562 163.574219 L 260.972656 162.367188 L 261.152344 162.203125 C 261.53125 161.875 261.855469 161.589844 262.117188 161.253906 L 262.371094 160.9375 L 262.746094 160.789062 C 266.203125 159.414062 269.554688 158.523438 271.839844 158.007812 C 267.765625 154.65625 262.277344 152.382812 255.480469 151.234375 L 253.40625 150.886719 L 253.382812 150.917969 L 252.511719 150.816406 C 249.972656 150.527344 247.261719 150.378906 244.445312 150.378906 C 235.292969 150.378906 227.390625 151.933594 225.21875 152.402344 L 214.839844 168.90625 C 211.789062 173.75 207.449219 177.648438 202.289062 180.167969 L 200.128906 181.226562 L 200.128906 177.757812 L 200.960938 177.34375 C 206.132812 174.769531 210.359375 170.769531 213.183594 165.769531 C 223.664062 147.203125 245.5 116.054688 273.953125 116.054688 C 275.882812 116.054688 277.839844 116.195312 279.765625 116.480469 C 305.109375 120.234375 315.460938 137.464844 319.679688 151.253906 L 316.933594 152.421875 C 316.933594 152.421875 316.699219 151.992188 316.648438 151.902344 C 315.785156 150.386719 314.847656 148.914062 313.84375 147.503906 C 314.835938 148.960938 315.757812 150.4375 316.59375 151.921875 C 319.246094 156.648438 321.226562 161.6875 322.484375 166.90625 L 322.566406 167.269531 L 322.570312 167.394531 C 322.714844 169.785156 322.664062 171.21875 322.664062 171.28125 L 322.453125 177.039062 L 319.828125 171.910156 C 317.800781 167.945312 312.351562 158.765625 306.867188 153.941406 C 310.054688 159.859375 315.253906 170.292969 318.855469 181.367188 L 316.21875 182.417969 L 317.164062 184.578125 L 318.40625 187.90625 L 319.503906 191.308594 C 320.875 196.039062 321.707031 200.789062 321.996094 205.46875 L 322.160156 210.34375 L 319.996094 209.433594 C 318.28125 208.710938 312.070312 206.347656 304.152344 206.347656 C 303.328125 206.347656 302.507812 206.375 301.691406 206.425781 C 307.179688 209.730469 316.472656 216.703125 320.839844 227.972656 C 322.875 233.230469 323.597656 238.867188 322.976562 244.722656 Z M 265.589844 307.363281 L 263.175781 307.691406 L 263.207031 307.902344 L 263.457031 309.917969 C 263.738281 312.480469 263.878906 315.121094 263.886719 318.003906 C 263.875 319.839844 263.777344 321.675781 263.609375 323.484375 L 263.601562 323.535156 L 263.738281 323.453125 L 263.0625 327.613281 L 262.148438 328.242188 L 259.496094 330.050781 L 259.910156 325.804688 L 259.933594 325.789062 L 260.039062 323.59375 C 260.0625 323.066406 260.074219 322.53125 260.074219 321.988281 C 260.039062 322.65625 260.003906 323.3125 259.96875 323.953125 C 259.945312 324.316406 259.910156 324.660156 259.882812 325.003906 L 259.800781 325.925781 L 259.855469 325.894531 C 259.855469 325.894531 259.414062 329.304688 259.394531 329.429688 L 259.296875 330.121094 L 258.707031 330.488281 C 257.832031 331.035156 256.867188 331.621094 255.820312 332.234375 L 253.664062 333.503906 L 252.519531 304.179688 L 253.417969 303.757812 C 257.835938 301.675781 261.207031 299.800781 263.25 298.59375 L 265.488281 297.273438 Z M 61.230469 144.152344 C 59.726562 147.976562 58.53125 152.101562 57.675781 156.398438 L 54.703125 156.195312 C 52.933594 126.515625 52.890625 104.003906 52.890625 103.058594 L 52.886719 102.300781 L 53.496094 101.828125 C 53.496094 101.828125 53.957031 101.488281 54.84375 100.863281 C 55.136719 100.65625 55.476562 100.417969 55.859375 100.152344 L 56.746094 99.539062 C 57.386719 99.101562 58.113281 98.605469 58.925781 98.0625 C 59.332031 97.789062 59.761719 97.503906 60.210938 97.210938 C 74.09375 88.046875 102.527344 71.125 137.003906 60.683594 L 139.667969 59.875 L 138.875 62.546875 C 135.933594 72.449219 131.792969 86.046875 127.222656 100.828125 C 126.4375 103.367188 126.335938 106.058594 126.914062 108.648438 L 129.449219 110.59375 L 127.984375 113.179688 C 122.25 110.910156 116.367188 109.757812 110.484375 109.757812 C 108.269531 109.757812 106.027344 109.925781 103.820312 110.257812 C 83.464844 113.316406 68.738281 125.039062 61.230469 144.152344 Z M 198.59375 106.769531 L 198.441406 106.949219 L 193.097656 110.304688 L 193.097656 141.839844 L 190.933594 140.765625 C 189.878906 140.242188 165.210938 127.785156 164.15625 109.144531 L 167.0625 108.546875 C 167.113281 108.679688 168.144531 111.355469 170.699219 112.445312 C 170.261719 110.128906 169.082031 106.339844 165.9375 104.175781 L 165.074219 103.585938 L 165.335938 102.570312 C 165.386719 102.359375 166.710938 97.449219 172.554688 96.046875 L 173.433594 95.832031 L 177.628906 100.601562 C 178.195312 101.242188 179.007812 101.613281 179.859375 101.613281 L 179.945312 103.113281 L 179.957031 101.609375 C 181.335938 101.597656 182.515625 100.644531 182.835938 99.296875 C 183.234375 97.601562 184.132812 96.089844 185.433594 94.925781 L 187.785156 92.8125 L 190.085938 94.683594 L 188.472656 97.445312 C 187.976562 98.296875 187.96875 99.3125 188.460938 100.167969 C 188.949219 101.023438 189.832031 101.535156 190.816406 101.539062 L 192.320312 101.539062 C 193.3125 101.535156 194.203125 101.015625 194.699219 100.148438 C 195.199219 99.28125 195.191406 98.246094 194.6875 97.386719 L 193.113281 94.683594 L 195.410156 92.8125 L 197.765625 94.925781 C 201.214844 98.019531 201.578125 103.222656 198.59375 106.769531 Z M 248.484375 109.671875 C 248.285156 109.105469 248.109375 108.53125 247.933594 107.960938 C 247.816406 107.601562 247.707031 107.242188 247.59375 106.894531 C 247.503906 106.613281 247.410156 106.332031 247.316406 106.050781 L 246.496094 103.550781 L 238.300781 109.816406 L 234.492188 112.726562 C 234.492188 112.726562 233.90625 113.246094 233.636719 113.492188 L 233.632812 113.445312 L 231.273438 115.671875 C 221.101562 125.277344 212.683594 136.425781 206.253906 148.804688 C 201.328125 158.285156 195.285156 165.175781 192.976562 167.640625 C 192.863281 167.539062 192.738281 167.429688 192.609375 167.308594 C 189.621094 164.578125 182.0625 157.136719 176.484375 146.980469 C 169.558594 134.390625 160.386719 123.019531 149.226562 113.1875 L 149.128906 113.101562 C 148.960938 112.066406 149.015625 111.003906 149.285156 109.996094 C 151.863281 100.429688 160.371094 68.714844 161.679688 62.203125 C 161.855469 61.335938 162.429688 59.691406 164.167969 56.792969 C 166.183594 53.441406 169.164062 49.433594 172.558594 45.515625 C 176.265625 41.238281 180.105469 37.464844 183.667969 34.597656 C 186.890625 32.007812 189.789062 30.261719 192.050781 29.539062 L 193.097656 29.207031 L 193.097656 13.878906 C 202.640625 18.335938 212.457031 28.292969 220.078125 36.660156 C 221.203125 37.890625 222.257812 39.0625 223.21875 40.132812 C 225.773438 42.976562 227.621094 45.035156 228.832031 46.0625 C 228.910156 46.128906 229.355469 46.570312 230.253906 48.539062 C 231.339844 50.917969 232.71875 54.707031 234.34375 59.792969 C 238.851562 73.890625 244.03125 93.988281 246.046875 101.976562 L 246.085938 102.101562 C 246.6875 103.832031 247.207031 105.390625 247.664062 106.855469 C 247.664062 106.855469 248.09375 108.238281 248.191406 108.570312 L 248.714844 110.320312 Z M 131.441406 107.992188 L 131.570312 108.488281 L 132.621094 109.296875 C 132.910156 109.515625 133.195312 109.742188 133.480469 109.96875 L 136.519531 112.351562 L 136.324219 109.035156 C 136.300781 108.578125 136.289062 108.128906 136.285156 107.675781 C 136.3125 108.367188 136.355469 109.0625 136.417969 109.765625 C 136.492188 110.480469 136.605469 111.25 136.757812 112.121094 L 136.855469 112.664062 L 137.28125 113.015625 C 138.0625 113.65625 138.835938 114.308594 139.605469 114.96875 L 142.691406 117.613281 L 142.0625 113.597656 C 142 113.214844 141.949219 112.828125 141.902344 112.4375 C 141.996094 112.972656 142.207031 114.167969 142.207031 114.167969 C 142.414062 115.25 142.652344 116.359375 142.9375 117.554688 L 143.046875 118.003906 L 143.386719 118.316406 C 153.246094 127.316406 161.636719 137.257812 168.328125 147.863281 C 176.074219 160.132812 186.527344 169.105469 190.664062 172.394531 C 191.09375 172.738281 191.460938 173.023438 191.757812 173.253906 C 192.351562 173.707031 192.6875 173.945312 192.6875 173.945312 L 193.640625 174.628906 L 194.53125 173.871094 C 194.558594 173.851562 195.144531 173.351562 196.136719 172.425781 C 199.347656 169.421875 207.554688 161.21875 214.289062 149.921875 C 219.726562 140.808594 226.335938 132.175781 233.941406 124.257812 L 234.390625 123.742188 C 234.390625 123.742188 234.34375 122.9375 234.339844 122.910156 C 234.285156 122.03125 234.1875 121.15625 234.09375 120.308594 C 234.058594 120.019531 234.03125 119.722656 234 119.414062 C 234.066406 119.710938 234.121094 120.007812 234.164062 120.304688 L 234.199219 120.574219 L 234.632812 123.5 L 236.738281 121.421875 C 237.5625 120.605469 238.398438 119.800781 239.242188 119.003906 L 239.78125 118.496094 L 239.707031 117.757812 C 239.660156 117.347656 239.617188 116.9375 239.558594 116.511719 L 239.402344 115.453125 C 239.429688 115.550781 239.453125 115.648438 239.476562 115.75 L 240.054688 118.21875 L 242.246094 116.246094 C 242.609375 115.921875 242.96875 115.59375 243.335938 115.269531 L 243.953125 114.730469 L 243.832031 113.921875 C 243.699219 113.054688 243.558594 112.195312 243.410156 111.332031 C 243.339844 110.929688 243.277344 110.527344 243.214844 110.125 C 243.3125 110.523438 243.402344 110.921875 243.480469 111.316406 C 243.507812 111.457031 243.53125 111.597656 243.558594 111.738281 L 244.082031 114.597656 L 246.054688 112.949219 C 246.703125 112.402344 247.355469 111.867188 248.015625 111.332031 L 248.835938 110.667969 L 248.832031 110.65625 L 250.546875 109.328125 L 251.214844 108.800781 L 251.625 108.488281 L 251.753906 107.992188 C 252.253906 106.074219 252.210938 104.0625 251.625 102.171875 C 249.65625 95.804688 242.898438 73.902344 238.605469 59.273438 C 237.101562 54.140625 236.039062 50.371094 235.441406 48.078125 C 235.300781 47.523438 235.179688 47.039062 235.089844 46.640625 C 234.351562 43.464844 231.242188 39.015625 228.757812 35.847656 C 220.632812 25.476562 203.859375 9.390625 192 6.109375 L 191.597656 5.996094 L 191.199219 6.109375 C 179.335938 9.390625 162.5625 25.476562 154.441406 35.847656 C 151.957031 39.015625 148.839844 43.464844 148.109375 46.636719 C 148.019531 47.035156 147.898438 47.523438 147.75 48.078125 C 147.15625 50.382812 146.089844 54.152344 144.589844 59.273438 C 140.300781 73.890625 133.542969 95.804688 131.570312 102.171875 C 130.988281 104.0625 130.945312 106.074219 131.441406 107.992188 "
        fill-opacity="1" fill-rule="nonzero" />
    <path fill="#ffffff"
        d="M 218.167969 82.011719 L 217.136719 81.683594 C 217.027344 81.648438 216.023438 81.347656 214.578125 81.347656 C 211.839844 81.347656 206.871094 82.449219 204.386719 89.832031 L 203.832031 91.488281 L 205.554688 91.785156 C 205.597656 91.796875 206.671875 91.980469 208.148438 91.980469 C 210.519531 91.980469 213.804688 91.511719 216 89.277344 C 217.5 87.746094 218.234375 85.667969 218.1875 83.089844 Z M 180.785156 89.832031 L 181.339844 91.488281 L 179.621094 91.785156 C 179.574219 91.796875 178.5 91.980469 177.023438 91.980469 C 174.65625 91.980469 171.367188 91.511719 169.175781 89.277344 C 167.675781 87.746094 166.9375 85.667969 166.988281 83.089844 L 167.007812 82.011719 L 168.035156 81.683594 C 168.148438 81.648438 169.152344 81.347656 170.597656 81.347656 C 173.335938 81.347656 178.300781 82.449219 180.785156 89.832031 "
        fill-opacity="1" fill-rule="nonzero" />
    <path fill="#cab5f1"
        d="M 186.464844 14.710938 C 186.464844 14.710938 170.195312 23.542969 164.738281 30.28125 C 163.253906 32.109375 161.9375 34.023438 160.800781 35.839844 C 157.75 40.726562 156.023438 44.921875 156.023438 44.921875 C 156.023438 44.921875 159.855469 40.691406 165.148438 35.167969 C 171.503906 28.535156 179.964844 20.035156 186.464844 14.710938 Z M 174.605469 72.578125 C 173.695312 74.507812 184.800781 82.550781 185.027344 81.753906 C 185.253906 80.964844 183.894531 72.695312 185.820312 73.375 C 186.601562 73.648438 187.699219 76.914062 188.726562 80.703125 C 189.125 82.167969 190.359375 82.902344 191.597656 82.902344 C 192.835938 82.902344 194.074219 82.167969 194.46875 80.703125 C 195.5 76.914062 196.59375 73.648438 197.375 73.375 C 199.300781 72.695312 197.941406 80.964844 198.167969 81.753906 C 198.398438 82.550781 209.496094 74.507812 208.59375 72.578125 C 207.84375 70.996094 196.800781 60.414062 192.925781 56.734375 C 192.554688 56.378906 192.074219 56.203125 191.597656 56.203125 C 191.121094 56.203125 190.640625 56.378906 190.269531 56.734375 C 186.398438 60.414062 175.351562 70.996094 174.605469 72.578125 Z M 278.378906 225.820312 C 277.089844 222.46875 268.324219 224.730469 265.703125 220.945312 C 263.839844 218.246094 265.371094 212.242188 264.597656 207.878906 C 264.328125 206.34375 263.777344 205.011719 262.6875 204.097656 L 261.90625 206.230469 L 260.238281 210.792969 L 254.824219 225.5625 C 259.324219 225.644531 263.695312 226.632812 267.867188 228.011719 C 269.992188 228.742188 272.082031 229.570312 274.109375 230.523438 C 276.128906 231.476562 278.121094 232.507812 279.996094 233.726562 C 275.828125 232.140625 271.636719 230.722656 267.382812 229.628906 C 263.144531 228.53125 258.816406 227.726562 254.519531 227.722656 C 253.25 227.710938 252.019531 227.605469 250.808594 227.460938 C 250.765625 227.464844 250.722656 227.476562 250.679688 227.480469 C 250.582031 227.484375 250.480469 227.476562 250.386719 227.457031 C 250.160156 227.410156 249.933594 227.367188 249.707031 227.320312 C 249.046875 227.230469 248.386719 227.136719 247.726562 227.035156 C 245.511719 226.6875 243.3125 226.300781 241.125 225.878906 C 236.742188 225.039062 232.386719 224.113281 228.042969 223.152344 C 219.355469 221.226562 210.703125 219.179688 202.074219 217.027344 C 198.578125 216.160156 195.089844 215.277344 191.597656 214.386719 C 186.644531 213.128906 181.699219 211.855469 176.753906 210.554688 C 174.164062 211.683594 172.382812 214.300781 171.324219 217.230469 C 171.148438 217.710938 170.996094 218.203125 170.847656 218.699219 L 174.726562 219.425781 C 174.726562 219.425781 176.121094 215.6875 181.003906 215.46875 C 183.007812 215.382812 186.773438 215.78125 191.597656 216.828125 C 198.519531 218.332031 207.613281 221.160156 216.789062 225.777344 C 232.359375 233.605469 281.390625 239.507812 281.390625 239.507812 C 281.390625 239.507812 281.390625 233.667969 278.378906 225.820312 Z M 147.410156 219.167969 C 147.40625 219.179688 147.402344 219.191406 147.398438 219.207031 C 147.191406 219.929688 146.949219 220.644531 146.765625 221.382812 L 146.34375 223.539062 C 146.824219 223.507812 147.304688 223.492188 147.773438 223.527344 C 147.816406 223.53125 147.859375 223.539062 147.902344 223.539062 C 148.535156 222.261719 149.214844 220.972656 149.914062 219.796875 C 149.457031 219.71875 149 219.632812 148.546875 219.519531 C 148.164062 219.425781 147.785156 219.300781 147.410156 219.167969 Z M 145.785156 228.191406 C 146.042969 227.585938 146.339844 226.902344 146.664062 226.183594 C 146.449219 226.101562 146.238281 226.011719 146.023438 225.917969 C 145.945312 226.675781 145.828125 227.429688 145.785156 228.191406 Z M 164.597656 215.910156 C 162.859375 215.617188 161.117188 215.359375 159.367188 215.117188 C 157.609375 214.902344 155.847656 214.707031 154.078125 214.585938 C 153.195312 214.515625 152.308594 214.503906 151.425781 214.367188 C 150.984375 214.304688 150.539062 214.1875 150.097656 214.058594 C 150.03125 214.035156 149.964844 214.015625 149.894531 213.996094 C 149.644531 214.363281 149.402344 214.738281 149.1875 215.136719 C 148.914062 215.632812 148.625 216.121094 148.390625 216.644531 C 148.574219 216.636719 148.761719 216.632812 148.945312 216.636719 C 149.925781 216.671875 150.886719 216.84375 151.847656 216.992188 C 152.445312 216.285156 153.03125 215.746094 153.582031 215.46875 L 167.859375 218.140625 C 168.003906 217.632812 168.164062 217.128906 168.335938 216.628906 C 167.941406 216.589844 167.570312 216.496094 167.191406 216.417969 C 166.335938 216.21875 165.460938 216.078125 164.597656 215.910156 Z M 158.65625 210.179688 C 157.402344 209.996094 156.148438 209.808594 154.894531 209.628906 C 154.722656 209.699219 154.507812 209.792969 154.328125 209.882812 C 154.03125 210.023438 153.738281 210.222656 153.445312 210.386719 L 152.601562 211 C 152.4375 211.140625 152.277344 211.285156 152.117188 211.433594 C 152.839844 211.414062 153.5625 211.472656 154.28125 211.511719 C 156.125 211.632812 157.964844 211.808594 159.796875 212.089844 C 161.628906 212.347656 163.445312 212.78125 165.230469 213.316406 C 166.117188 213.605469 167.003906 213.894531 167.867188 214.265625 C 168.269531 214.40625 168.667969 214.574219 169.03125 214.828125 C 169.378906 214.050781 169.78125 213.289062 170.242188 212.554688 L 161.222656 210.707031 Z M 65.375 159.570312 L 66.855469 157.230469 L 68.414062 154.9375 C 68.953125 154.1875 69.492188 153.4375 70.054688 152.707031 L 71.785156 150.546875 L 73.582031 148.445312 C 74.207031 147.769531 74.792969 147.058594 75.503906 146.457031 C 76.238281 145.878906 77.035156 145.363281 78.03125 145.046875 C 77.8125 146.078125 77.390625 146.910156 76.914062 147.683594 C 76.453125 148.476562 75.867188 149.152344 75.320312 149.863281 L 73.734375 152.039062 L 72.214844 154.257812 C 71.738281 155.019531 71.242188 155.761719 70.746094 156.507812 L 69.328125 158.78125 L 67.984375 161.101562 L 66.988281 162.882812 C 70.582031 157.476562 75.632812 151.175781 80.433594 149.6875 C 80.433594 149.6875 65.792969 174.003906 62.40625 195.355469 C 63.65625 192.230469 65.003906 189.144531 66.472656 186.121094 L 68.042969 182.957031 L 69.714844 179.851562 L 71.460938 176.789062 C 72.066406 175.777344 72.667969 174.769531 73.292969 173.773438 L 75.214844 170.816406 L 77.203125 167.910156 C 77.894531 166.960938 78.539062 165.976562 79.324219 165.09375 C 80.121094 164.238281 80.988281 163.433594 82.074219 162.792969 C 86.328125 151.609375 90.53125 139.421875 90.53125 139.421875 C 83.097656 138.648438 74.730469 144.53125 74.730469 144.53125 C 81.21875 131.246094 106.167969 117.746094 106.304688 117.671875 C 105.425781 117.742188 104.542969 117.835938 103.652344 117.964844 C 69.960938 122.957031 63.5 152.398438 62.292969 165.242188 C 62.839844 164.140625 63.398438 163.050781 63.996094 161.980469 Z M 81.566406 264.917969 C 81.566406 264.917969 81.566406 264.945312 81.566406 264.984375 C 81.566406 264.984375 81.566406 264.988281 81.566406 264.988281 C 81.554688 266.386719 81.746094 288.648438 104.796875 294.328125 C 87.023438 287.886719 86.191406 244.515625 86.191406 244.515625 L 75.660156 261.027344 C 75.660156 261.027344 69.460938 251.421875 73.800781 231.796875 C 78.140625 212.171875 98.894531 208.976562 98.894531 208.976562 C 91.460938 196.273438 71.960938 195.964844 71.960938 195.964844 C 71.960938 195.964844 74.421875 182.019531 79.378906 169.707031 C 79.769531 168.734375 80.167969 167.726562 80.570312 166.699219 C 80.101562 167.535156 79.589844 168.332031 79.078125 169.140625 L 77.296875 172.117188 L 75.582031 175.128906 C 75.039062 176.152344 74.472656 177.160156 73.910156 178.167969 L 72.292969 181.230469 C 71.253906 183.292969 70.230469 185.359375 69.230469 187.4375 C 67.265625 191.613281 65.453125 195.859375 63.84375 200.183594 L 62.671875 203.441406 C 62.390625 204.273438 62.097656 205.097656 61.789062 205.921875 C 61.839844 206.734375 61.914062 207.53125 62.023438 208.316406 C 62.023438 208.316406 73.074219 203.015625 86.378906 205.527344 C 86.378906 205.527344 76.464844 209.847656 69.152344 219.144531 L 68.5625 220.726562 C 67.367188 224.183594 66.5625 227.773438 66.097656 231.40625 L 65.832031 234.140625 L 65.671875 236.886719 L 65.660156 239.34375 L 65.660156 239.632812 C 65.707031 240.550781 65.753906 241.46875 65.777344 242.386719 L 66.011719 245.136719 L 66.402344 247.871094 C 66.574219 248.777344 66.800781 249.667969 66.867188 250.609375 C 66.976562 251.535156 67.007812 252.488281 66.777344 253.558594 C 66.691406 253.480469 66.621094 253.390625 66.542969 253.308594 C 67.050781 254.683594 67.609375 256.039062 68.246094 257.363281 L 69.382812 259.574219 L 70.640625 261.730469 C 70.699219 261.824219 70.761719 261.914062 70.820312 262.003906 C 71.226562 262.601562 71.648438 263.191406 71.972656 263.859375 C 72.386719 264.597656 72.738281 265.390625 72.890625 266.398438 C 72.554688 266.292969 72.25 266.152344 71.957031 265.996094 C 71.425781 265.722656 70.949219 265.386719 70.503906 265.019531 C 69.863281 264.410156 69.34375 263.695312 68.785156 263.015625 L 67.253906 260.863281 L 65.878906 258.601562 C 64.675781 256.464844 63.667969 254.210938 62.871094 251.886719 C 66.214844 267.648438 74.109375 278.871094 78.597656 284.230469 C 80.542969 286.558594 81.851562 287.785156 81.851562 287.785156 C 81.851562 287.785156 77.886719 273.566406 81.566406 264.917969 Z M 272.421875 321.1875 C 273.753906 320.234375 275.074219 319.265625 276.371094 318.265625 C 283.957031 312.425781 290.847656 305.765625 296.40625 298.210938 C 289.066406 300.375 279.148438 302.574219 272.242188 302.476562 Z M 92.652344 305.347656 C 91.527344 304.113281 90.433594 302.859375 89.386719 301.574219 C 90.433594 302.859375 91.527344 304.113281 92.652344 305.347656 Z M 303.117188 86.910156 C 302.601562 86.625 302.085938 86.335938 301.558594 86.042969 C 300.433594 85.425781 299.285156 84.800781 298.113281 84.167969 C 296.570312 83.34375 294.984375 82.507812 293.355469 81.664062 C 291.898438 80.914062 290.40625 80.160156 288.882812 79.402344 C 288.878906 79.402344 288.878906 79.398438 288.875 79.398438 C 282.644531 76.3125 275.855469 73.199219 268.628906 70.253906 C 266.820312 69.519531 264.984375 68.792969 263.125 68.078125 C 259.40625 66.65625 255.585938 65.285156 251.679688 63.992188 C 249.726562 63.347656 247.753906 62.722656 245.757812 62.113281 C 249 73.015625 253.359375 87.296875 257.40625 100.386719 C 258.324219 103.347656 258.398438 106.507812 257.613281 109.515625 L 255.539062 111.109375 C 255.257812 111.324219 254.988281 111.546875 254.707031 111.765625 C 260.367188 109.53125 266.367188 108.257812 272.710938 108.257812 C 275 108.257812 277.316406 108.429688 279.597656 108.773438 C 300.515625 111.917969 315.648438 123.964844 323.367188 143.605469 C 325.078125 147.972656 326.226562 152.253906 326.992188 156.105469 C 328.804688 125.796875 328.804688 103.035156 328.804688 103.035156 C 328.804688 103.035156 319.058594 95.828125 303.117188 86.910156 Z M 88.613281 300.59375 C 88.867188 300.917969 89.117188 301.242188 89.378906 301.5625 C 89.117188 301.242188 88.867188 300.917969 88.613281 300.59375 "
        fill-opacity="1" fill-rule="nonzero" />
    <path fill="#100f0d"
        d="M 246.796875 288.203125 C 246.914062 288.507812 247.183594 288.601562 246.726562 289.660156 C 245.8125 290.347656 245.625 290.074219 245.285156 290.007812 C 244.976562 289.898438 244.671875 289.773438 244.402344 289.609375 C 243.867188 289.273438 243.441406 288.8125 242.996094 288.378906 C 242.125 287.484375 241.308594 286.539062 240.585938 285.527344 C 239.859375 284.515625 239.242188 283.425781 238.746094 282.285156 L 238.394531 281.425781 L 238.097656 280.542969 C 238.015625 280.246094 237.882812 279.964844 237.902344 279.625 C 237.9375 279.28125 238.050781 278.90625 238.433594 278.441406 C 239.613281 278.617188 239.859375 279.101562 240.144531 279.59375 L 241.089844 281 C 241.722656 281.921875 242.382812 282.820312 243.054688 283.703125 C 243.726562 284.582031 244.4375 285.433594 245.207031 286.230469 L 245.789062 286.820312 C 245.992188 287.007812 246.179688 287.214844 246.34375 287.445312 C 246.523438 287.664062 246.660156 287.925781 246.796875 288.203125 Z M 166.789062 102.941406 C 166.789062 102.941406 167.871094 98.710938 172.90625 97.503906 L 176.503906 101.59375 C 177.363281 102.574219 178.605469 103.128906 179.910156 103.113281 C 179.933594 103.113281 179.957031 103.113281 179.980469 103.109375 C 182.050781 103.089844 183.820312 101.652344 184.292969 99.640625 C 184.613281 98.296875 185.332031 97.035156 186.433594 96.039062 L 188.789062 93.929688 L 187.175781 96.6875 C 185.539062 99.496094 187.558594 103.027344 190.808594 103.039062 L 192.320312 103.039062 C 195.601562 103.023438 197.636719 99.460938 195.984375 96.628906 L 194.40625 93.929688 L 196.761719 96.039062 C 199.589844 98.578125 199.890625 102.898438 197.445312 105.800781 L 191.597656 109.476562 L 191.597656 109.472656 L 185.949219 105.929688 C 184.878906 105.34375 183.996094 104.640625 183.472656 103.847656 C 183.472656 103.847656 182.761719 110.078125 191.597656 111.4375 L 191.597656 139.421875 C 191.589844 139.417969 166.675781 127.070312 165.65625 109.058594 C 165.65625 109.058594 167.46875 114.042969 172.453125 114.382812 C 172.453125 114.382812 172.226562 106.679688 166.789062 102.941406 Z M 179.363281 90.308594 C 179.363281 90.308594 168.316406 92.234375 168.488281 83.113281 C 168.488281 83.113281 176.132812 80.710938 179.363281 90.308594 Z M 174.605469 72.578125 C 175.351562 70.996094 186.398438 60.414062 190.269531 56.734375 C 190.640625 56.378906 191.121094 56.203125 191.597656 56.203125 C 192.074219 56.203125 192.554688 56.378906 192.925781 56.734375 C 196.800781 60.414062 207.84375 70.996094 208.59375 72.578125 C 209.496094 74.507812 198.398438 82.550781 198.167969 81.753906 C 197.941406 80.964844 199.300781 72.695312 197.375 73.375 C 196.59375 73.648438 195.5 76.914062 194.46875 80.703125 C 194.074219 82.167969 192.835938 82.902344 191.597656 82.902344 C 190.359375 82.902344 189.125 82.167969 188.726562 80.703125 C 187.699219 76.914062 186.601562 73.648438 185.820312 73.375 C 183.894531 72.695312 185.253906 80.964844 185.027344 81.753906 C 184.800781 82.550781 173.695312 74.507812 174.605469 72.578125 Z M 216.6875 83.113281 C 216.855469 92.234375 205.808594 90.308594 205.808594 90.308594 C 209.039062 80.710938 216.6875 83.113281 216.6875 83.113281 Z M 189.875 149.785156 C 190.417969 150.003906 191.003906 150.109375 191.597656 150.109375 C 192.1875 150.109375 192.777344 150.003906 193.324219 149.785156 C 216.066406 140.671875 233.273438 110.625 224 84.652344 C 221.941406 78.882812 219.277344 73.9375 216.363281 69.71875 C 213.058594 65.804688 209.527344 61.878906 206.203125 58.289062 C 206.257812 58.316406 206.3125 58.347656 206.367188 58.375 C 209.988281 60.210938 213.320312 62.160156 215.046875 63.832031 C 220.042969 68.675781 228.292969 84.628906 228.292969 84.628906 C 228.292969 84.628906 228.292969 84.4375 228.140625 82.488281 C 228.058594 81.367188 227.921875 79.667969 227.710938 77.078125 C 227.128906 69.988281 222.015625 58.605469 222.015625 58.605469 L 226.558594 61.390625 C 226.558594 61.390625 225.933594 59.394531 224.964844 56.890625 C 223.769531 53.785156 222.0625 49.894531 220.390625 48.027344 C 219.796875 47.371094 218.785156 46.414062 217.546875 45.308594 C 212.472656 40.792969 203.542969 33.738281 203.542969 33.738281 C 203.542969 33.738281 203.542969 33.738281 209.585938 35.714844 C 215.625 37.691406 222.832031 44.921875 222.832031 44.921875 C 222.832031 44.921875 222.714844 44.195312 218.53125 38.152344 C 217.898438 37.238281 216.832031 36.089844 215.484375 34.808594 C 207.964844 27.648438 191.597656 16.195312 191.597656 16.195312 L 191.597656 48.5625 C 191.597656 48.5625 187.808594 50.082031 182.671875 53.710938 L 182.667969 53.710938 C 175.207031 58.976562 164.898438 68.6875 159.199219 84.652344 C 149.921875 110.625 167.132812 140.671875 189.875 149.785156 Z M 276.371094 318.265625 C 275.074219 319.265625 273.753906 320.234375 272.421875 321.1875 L 272.242188 302.476562 C 279.148438 302.574219 289.066406 300.375 296.40625 298.210938 C 290.847656 305.765625 283.957031 312.425781 276.371094 318.265625 Z M 108.988281 319.894531 C 108.691406 319.679688 108.402344 319.453125 108.105469 319.234375 C 106.957031 318.367188 105.816406 317.488281 104.695312 316.589844 C 104.449219 316.394531 104.210938 316.1875 103.96875 315.988281 C 103.511719 315.621094 103.054688 315.25 102.609375 314.875 C 102.386719 314.6875 102.171875 314.492188 101.953125 314.304688 C 101.484375 313.90625 101.019531 313.515625 100.5625 313.109375 C 100.347656 312.917969 100.132812 312.71875 99.917969 312.523438 C 99.464844 312.121094 99.011719 311.714844 98.566406 311.300781 C 98.347656 311.097656 98.136719 310.890625 97.917969 310.6875 C 97.484375 310.273438 97.042969 309.867188 96.617188 309.449219 C 96.574219 309.402344 96.527344 309.359375 96.484375 309.316406 C 95.890625 308.734375 95.300781 308.144531 94.722656 307.550781 C 94.476562 307.296875 94.242188 307.035156 93.996094 306.78125 C 93.625 306.390625 93.246094 306.003906 92.882812 305.605469 C 92.804688 305.519531 92.730469 305.429688 92.652344 305.347656 C 91.527344 304.113281 90.433594 302.859375 89.386719 301.574219 C 89.382812 301.570312 89.378906 301.5625 89.378906 301.5625 C 89.117188 301.242188 88.867188 300.917969 88.613281 300.59375 C 97.359375 302.855469 105.269531 300.515625 110.953125 302.476562 L 110.777344 321.1875 C 110.378906 320.902344 109.980469 320.617188 109.589844 320.328125 C 109.390625 320.183594 109.1875 320.042969 108.988281 319.894531 Z M 62.871094 251.886719 C 63.667969 254.210938 64.675781 256.464844 65.878906 258.601562 L 67.253906 260.863281 L 68.785156 263.015625 C 69.34375 263.695312 69.863281 264.410156 70.503906 265.019531 C 70.949219 265.386719 71.425781 265.722656 71.957031 265.996094 C 72.25 266.152344 72.554688 266.292969 72.890625 266.398438 C 72.738281 265.390625 72.386719 264.597656 71.972656 263.859375 C 71.648438 263.191406 71.226562 262.601562 70.820312 262.003906 C 70.761719 261.914062 70.699219 261.824219 70.640625 261.730469 L 69.382812 259.574219 L 68.246094 257.363281 C 67.609375 256.039062 67.050781 254.683594 66.542969 253.308594 C 66.621094 253.390625 66.691406 253.480469 66.777344 253.558594 C 67.007812 252.488281 66.976562 251.535156 66.867188 250.609375 C 66.800781 249.667969 66.574219 248.777344 66.402344 247.871094 L 66.011719 245.136719 L 65.777344 242.386719 C 65.753906 241.46875 65.707031 240.550781 65.660156 239.632812 L 65.660156 239.34375 L 65.671875 236.886719 L 65.832031 234.140625 L 66.097656 231.40625 C 66.5625 227.773438 67.367188 224.183594 68.5625 220.726562 L 69.152344 219.144531 C 76.464844 209.847656 86.378906 205.527344 86.378906 205.527344 C 73.074219 203.015625 62.023438 208.316406 62.023438 208.316406 C 61.914062 207.53125 61.839844 206.734375 61.789062 205.921875 C 62.097656 205.097656 62.390625 204.273438 62.671875 203.441406 L 63.84375 200.183594 C 65.453125 195.859375 67.265625 191.613281 69.230469 187.4375 C 70.230469 185.359375 71.253906 183.292969 72.292969 181.230469 L 73.910156 178.167969 C 74.472656 177.160156 75.039062 176.152344 75.582031 175.128906 L 77.296875 172.117188 L 79.078125 169.140625 C 79.589844 168.332031 80.101562 167.535156 80.570312 166.699219 C 81.234375 165.507812 81.804688 164.238281 82.109375 162.769531 C 82.097656 162.777344 82.085938 162.789062 82.074219 162.792969 C 80.988281 163.433594 80.121094 164.238281 79.324219 165.09375 C 78.539062 165.976562 77.894531 166.960938 77.203125 167.910156 L 75.214844 170.816406 L 73.292969 173.773438 C 72.667969 174.769531 72.066406 175.777344 71.460938 176.789062 L 69.714844 179.851562 L 68.042969 182.957031 L 66.472656 186.121094 C 65.003906 189.144531 63.65625 192.230469 62.40625 195.355469 C 65.792969 174.003906 80.433594 149.6875 80.433594 149.6875 C 75.632812 151.175781 70.582031 157.476562 66.988281 162.882812 L 67.984375 161.101562 L 69.328125 158.78125 L 70.746094 156.507812 C 71.242188 155.761719 71.738281 155.019531 72.214844 154.257812 L 73.734375 152.039062 L 75.320312 149.863281 C 75.867188 149.152344 76.453125 148.476562 76.914062 147.683594 C 77.390625 146.910156 77.8125 146.078125 78.03125 145.046875 C 77.035156 145.363281 76.238281 145.878906 75.503906 146.457031 C 74.792969 147.058594 74.207031 147.769531 73.582031 148.445312 L 71.785156 150.546875 L 70.054688 152.707031 C 69.492188 153.4375 68.953125 154.1875 68.414062 154.9375 L 66.855469 157.230469 L 65.375 159.570312 L 63.996094 161.980469 C 63.398438 163.050781 62.839844 164.140625 62.292969 165.242188 C 63.5 152.398438 69.960938 122.957031 103.652344 117.964844 C 133.816406 113.5 157.257812 146.226562 168.710938 166.503906 C 172.183594 172.65625 177.664062 177.296875 184.09375 179.792969 L 184.09375 209.425781 C 181.730469 208.796875 179.367188 208.171875 177.007812 207.535156 C 176.722656 207.457031 176.414062 207.460938 176.113281 207.574219 L 176.097656 207.578125 C 174.699219 208.085938 173.425781 208.917969 172.359375 209.925781 C 171.292969 209.371094 170.164062 209.246094 169.0625 208.941406 C 167.507812 208.582031 165.949219 208.257812 164.386719 207.976562 C 161.257812 207.433594 158.109375 206.992188 154.96875 206.523438 L 154.917969 206.511719 C 154.738281 206.488281 154.546875 206.5 154.359375 206.554688 C 153.75 206.734375 153.394531 206.910156 152.953125 207.121094 C 152.53125 207.320312 152.160156 207.570312 151.761719 207.796875 L 150.671875 208.585938 C 150.332031 208.867188 150.011719 209.171875 149.679688 209.46875 C 149.4375 209.703125 149.210938 209.949219 148.980469 210.195312 C 148.722656 210.070312 148.460938 209.957031 148.195312 209.875 C 150.722656 204.46875 154.046875 200.46875 154.046875 200.46875 L 146.144531 202.09375 C 146.144531 202.09375 146.144531 202.09375 145.660156 192.800781 C 145.253906 185.066406 139.027344 172.183594 136.945312 168.078125 C 136.925781 166.589844 136.878906 165.097656 136.777344 163.574219 C 136.746094 163.023438 136.675781 162.4375 136.617188 161.855469 C 136.535156 161.265625 136.417969 160.558594 136.21875 160.023438 C 136.046875 159.449219 135.863281 158.875 135.621094 158.351562 C 135.390625 157.816406 135.164062 157.277344 134.898438 156.777344 C 133.875 154.730469 132.726562 152.804688 131.4375 150.984375 C 131.054688 150.433594 130.652344 149.898438 130.257812 149.359375 C 129.347656 148.105469 128.414062 146.871094 127.453125 145.667969 C 126.753906 144.808594 126.011719 143.988281 125.203125 143.226562 C 124.402344 142.457031 123.546875 141.730469 122.566406 141.121094 C 123.90625 144.320312 125.882812 146.972656 127.695312 149.71875 C 128.261719 150.578125 128.8125 151.449219 129.324219 152.347656 C 130.417969 154.199219 131.480469 156.066406 132.324219 157.980469 C 132.554688 158.453125 132.726562 158.933594 132.910156 159.414062 C 133.109375 159.894531 133.238281 160.371094 133.378906 160.84375 C 133.546875 161.34375 133.589844 161.722656 133.652344 162.214844 C 133.679688 162.511719 133.707031 162.808594 133.730469 163.105469 C 133.101562 161.800781 132.339844 160.558594 131.46875 159.40625 L 130.667969 158.40625 L 129.808594 157.457031 C 129.503906 157.160156 129.238281 156.824219 128.851562 156.601562 C 128.449219 156.394531 127.980469 156.246094 127.324219 156.308594 C 127.125 157.609375 127.589844 158.207031 128.039062 158.855469 C 128.453125 159.523438 128.851562 160.195312 129.234375 160.871094 C 129.996094 162.230469 130.652344 163.628906 131.269531 165.042969 C 131.851562 166.46875 132.355469 167.929688 132.71875 169.425781 L 132.972656 170.554688 C 133.039062 170.933594 133.125 171.308594 133.246094 171.679688 C 133.34375 172.054688 133.5 172.425781 133.667969 172.796875 C 133.746094 172.953125 133.785156 173.109375 133.878906 173.261719 C 133.867188 174.433594 133.851562 175.605469 133.835938 176.773438 C 133.824219 177.476562 133.804688 178.175781 133.789062 178.878906 C 123.601562 176.265625 109.898438 180.28125 109.898438 180.28125 C 116.5 183.070312 132.597656 208.046875 132.597656 208.046875 C 116.957031 207.726562 98.507812 238.578125 98.507812 238.578125 C 98.507812 238.578125 98.507812 238.578125 111.988281 235.972656 C 122.386719 233.964844 128.988281 235.054688 131.472656 235.65625 C 131.40625 236.914062 131.34375 238.171875 131.285156 239.429688 C 130.511719 239.332031 129.742188 239.253906 128.972656 239.199219 C 126.425781 239.011719 123.867188 239.105469 121.339844 239.410156 C 118.816406 239.71875 116.320312 240.25 113.898438 241.03125 C 111.480469 241.789062 109.140625 242.96875 107.382812 244.910156 C 109.945312 244.457031 112.199219 243.757812 114.515625 243.109375 C 116.828125 242.484375 119.203125 242.089844 121.589844 241.910156 C 123.582031 241.753906 125.582031 241.773438 127.570312 241.90625 C 126.789062 242.125 126.011719 242.355469 125.242188 242.605469 C 121.757812 243.746094 118.40625 245.296875 115.253906 247.164062 C 112.109375 249.042969 109.125 251.222656 106.492188 253.777344 C 105.84375 254.425781 105.21875 255.09375 104.59375 255.761719 C 104.011719 256.472656 103.433594 257.183594 102.875 257.90625 C 102.347656 258.652344 101.835938 259.414062 101.332031 260.171875 C 100.898438 260.980469 100.554688 261.859375 100.574219 262.949219 C 101.632812 262.59375 102.332031 262.035156 102.9375 261.398438 C 103.550781 260.773438 104.164062 260.152344 104.753906 259.523438 C 105.394531 258.929688 106.011719 258.324219 106.628906 257.71875 C 107.273438 257.140625 107.910156 256.5625 108.527344 255.964844 C 111.101562 253.667969 113.855469 251.570312 116.828125 249.820312 C 117.722656 249.289062 118.640625 248.796875 119.566406 248.328125 C 118.9375 248.910156 118.335938 249.511719 117.761719 250.140625 C 116.683594 251.335938 115.699219 252.613281 114.832031 253.960938 C 113.949219 255.285156 113.125 256.714844 113.347656 258.574219 C 114.964844 257.675781 115.746094 256.460938 116.664062 255.277344 C 117.597656 254.117188 118.605469 253.023438 119.675781 252.003906 C 121.816406 249.96875 124.226562 248.242188 126.800781 246.855469 C 129.390625 245.488281 132.183594 244.492188 135.058594 243.9375 C 135.261719 243.894531 135.46875 243.863281 135.667969 243.828125 L 141.976562 243.753906 C 145.03125 243.714844 148.078125 243.929688 151.101562 244.359375 C 154.121094 244.785156 157.113281 245.457031 160.03125 246.363281 L 168.007812 248.949219 C 168.105469 249.109375 168.234375 249.25 168.390625 249.367188 L 168.40625 249.378906 C 176.003906 254.886719 183.726562 260.234375 191.597656 265.363281 C 192.648438 266.046875 193.6875 266.742188 194.742188 267.414062 C 202.589844 272.429688 210.585938 277.226562 218.839844 281.585938 C 219.183594 281.898438 219.527344 282.214844 219.871094 282.519531 C 220.757812 283.292969 221.632812 284.078125 222.621094 284.722656 C 223.105469 285.050781 223.632812 285.328125 224.167969 285.589844 C 224.714844 285.800781 225.128906 286.210938 226.171875 285.722656 C 226.421875 285.957031 226.675781 286.1875 226.957031 286.390625 C 227.296875 286.640625 227.675781 286.84375 228.058594 287.039062 C 226.898438 287.546875 225.804688 288.15625 224.628906 288.644531 C 222.523438 289.691406 220.308594 290.515625 218.15625 291.457031 C 213.792969 293.203125 209.332031 294.71875 204.796875 296 C 200.457031 297.179688 196.042969 298.113281 191.597656 298.875 C 191.386719 298.910156 191.179688 298.949219 190.964844 298.984375 C 186.296875 299.734375 181.59375 300.253906 176.871094 300.617188 C 167.425781 301.269531 157.921875 301.363281 148.4375 300.847656 C 143.695312 300.613281 138.953125 300.25 134.226562 299.734375 C 132.609375 299.546875 129.371094 299.171875 129.371094 299.171875 C 126.269531 298.832031 123.148438 298.566406 119.945312 298.613281 C 122.964844 299.933594 126.109375 300.695312 129.289062 301.257812 C 130.839844 301.527344 132.398438 301.753906 133.953125 301.964844 C 134.324219 302.015625 134.695312 302.0625 135.066406 302.109375 C 132.6875 302.078125 130.710938 302.050781 129.257812 302.027344 C 127.527344 302 126.550781 301.980469 126.550781 301.980469 C 126.550781 301.980469 127.5 302.371094 129.21875 303.050781 C 134.085938 304.964844 145.1875 309.167969 158.914062 313.328125 C 167.574219 315.949219 176.003906 317.472656 184.09375 318.175781 L 184.09375 340.101562 C 180.714844 339.871094 177.339844 339.539062 173.984375 339.09375 C 167.207031 338.207031 160.511719 336.734375 153.941406 334.867188 C 147.375 332.972656 140.945312 330.578125 134.765625 327.648438 C 132.605469 326.628906 130.488281 325.523438 128.390625 324.390625 C 127.476562 323.902344 126.570312 323.410156 125.660156 322.914062 C 123.433594 321.683594 121.214844 320.425781 118.996094 319.140625 L 119.222656 295.59375 C 81.757812 297.167969 81.550781 266.582031 81.566406 264.988281 C 81.566406 264.984375 81.566406 264.988281 81.566406 264.984375 C 81.566406 264.945312 81.566406 264.917969 81.566406 264.917969 C 77.886719 273.566406 81.851562 287.785156 81.851562 287.785156 C 81.851562 287.785156 80.542969 286.558594 78.597656 284.230469 C 74.109375 278.871094 66.214844 267.648438 62.871094 251.886719 Z M 54.390625 103.035156 C 54.390625 103.035156 55.195312 102.441406 56.714844 101.382812 C 65.394531 95.351562 97.496094 74.214844 137.4375 62.117188 C 134.199219 73.015625 129.835938 87.296875 125.789062 100.386719 C 124.875 103.351562 124.800781 106.507812 125.585938 109.515625 L 128.539062 111.785156 C 122.871094 109.539062 116.847656 108.257812 110.484375 108.257812 C 108.195312 108.257812 105.878906 108.429688 103.59375 108.773438 C 82.679688 111.917969 67.546875 123.964844 59.832031 143.605469 C 58.117188 147.972656 56.96875 152.253906 56.203125 156.109375 C 54.425781 126.371094 54.390625 103.902344 54.390625 103.058594 C 54.390625 103.042969 54.390625 103.035156 54.390625 103.035156 Z M 149.570312 46.976562 C 150.117188 44.597656 152.363281 40.929688 155.621094 36.773438 C 164.460938 25.484375 180.832031 10.53125 191.597656 7.550781 C 202.359375 10.53125 218.738281 25.484375 227.578125 36.773438 C 230.835938 40.929688 233.074219 44.597656 233.625 46.976562 C 233.71875 47.382812 233.84375 47.886719 233.992188 48.457031 C 234.640625 50.960938 235.777344 54.953125 237.167969 59.695312 C 241.398438 74.117188 247.964844 95.417969 250.191406 102.613281 C 250.695312 104.242188 250.730469 105.964844 250.300781 107.613281 C 250.078125 107.789062 249.855469 107.96875 249.632812 108.140625 C 249.457031 107.566406 249.277344 106.992188 249.101562 106.417969 C 248.59375 104.804688 248.058594 103.203125 247.503906 101.609375 C 247.21875 100.796875 246.941406 99.980469 246.640625 99.171875 C 245.777344 96.769531 244.796875 94.414062 243.742188 92.089844 C 243.210938 90.929688 242.660156 89.777344 242.09375 88.636719 C 241.796875 88.070312 241.554688 87.484375 241.160156 86.960938 C 240.757812 86.441406 240.277344 85.960938 239.535156 85.597656 C 239.105469 87.175781 239.570312 88.339844 240.011719 89.519531 L 241.265625 93.085938 L 243.765625 100.203125 C 244.433594 102.140625 245.09375 104.078125 245.730469 106.023438 C 245.871094 106.46875 246.023438 106.90625 246.164062 107.347656 C 246.46875 108.289062 246.742188 109.234375 247.070312 110.171875 C 246.40625 110.707031 245.746094 111.25 245.089844 111.796875 C 245.042969 111.539062 245.003906 111.28125 244.953125 111.023438 C 244.703125 109.785156 244.371094 108.566406 243.972656 107.367188 C 243.960938 107.339844 243.957031 107.3125 243.945312 107.285156 C 243.738281 106.671875 243.511719 106.070312 243.269531 105.46875 C 243.132812 105.171875 243.058594 104.863281 242.824219 104.59375 C 242.578125 104.332031 242.253906 104.089844 241.65625 103.941406 C 240.84375 104.839844 240.976562 105.441406 241.089844 106.058594 L 241.347656 107.914062 C 241.414062 108.351562 241.488281 108.777344 241.558594 109.214844 C 241.675781 110.007812 241.792969 110.800781 241.933594 111.585938 C 242.078125 112.4375 242.214844 113.289062 242.34375 114.144531 C 241.875 114.5625 241.40625 114.984375 240.9375 115.40625 C 240.757812 114.644531 240.523438 113.894531 240.230469 113.171875 C 240.027344 112.675781 239.800781 112.1875 239.550781 111.71875 C 239.421875 111.496094 239.335938 111.261719 239.125 111.074219 C 239.113281 111.0625 239.109375 111.050781 239.097656 111.042969 C 238.847656 110.859375 238.523438 110.707031 237.9375 110.679688 C 237.21875 111.496094 237.300781 111.941406 237.402344 112.386719 C 237.410156 112.414062 237.414062 112.441406 237.421875 112.46875 L 237.660156 113.898438 L 238.074219 116.730469 C 238.128906 117.121094 238.171875 117.519531 238.214844 117.914062 C 237.363281 118.714844 236.519531 119.53125 235.683594 120.355469 C 235.667969 120.261719 235.664062 120.167969 235.648438 120.074219 C 235.511719 119.164062 235.289062 118.269531 234.992188 117.394531 C 234.84375 116.960938 234.675781 116.53125 234.488281 116.109375 C 234.386719 115.902344 234.339844 115.675781 234.132812 115.496094 C 234.058594 115.433594 233.964844 115.375 233.851562 115.320312 C 233.660156 115.222656 233.40625 115.144531 233.054688 115.097656 C 232.175781 115.800781 232.246094 116.214844 232.296875 116.644531 C 232.300781 116.683594 232.300781 116.722656 232.300781 116.761719 C 232.324219 117.15625 232.347656 117.550781 232.375 117.9375 C 232.4375 118.792969 232.507812 119.640625 232.605469 120.480469 C 232.699219 121.316406 232.789062 122.160156 232.84375 123.003906 C 232.851562 123.074219 232.851562 123.144531 232.859375 123.214844 C 225.304688 131.082031 218.609375 139.75 213.003906 149.148438 C 206.402344 160.222656 198.410156 168.246094 195.109375 171.332031 C 194.132812 172.242188 193.5625 172.726562 193.5625 172.726562 C 193.5625 172.726562 193.242188 172.496094 192.671875 172.058594 C 192.375 171.835938 192.019531 171.554688 191.597656 171.222656 C 187.371094 167.863281 177.1875 159.082031 169.597656 147.0625 C 162.609375 135.988281 154.054688 126.023438 144.398438 117.207031 C 144.136719 116.101562 143.894531 114.996094 143.679688 113.882812 C 143.375 112.167969 143.070312 110.453125 142.816406 108.722656 L 142.453125 106.117188 C 142.367188 105.238281 142.320312 104.378906 141.289062 103.480469 C 140.757812 103.921875 140.515625 104.375 140.355469 104.832031 C 140.214844 105.285156 140.234375 105.742188 140.195312 106.199219 L 140.148438 107.570312 L 140.15625 108.945312 C 140.191406 110.578125 140.324219 112.210938 140.578125 113.828125 C 139.804688 113.164062 139.023438 112.507812 138.238281 111.859375 C 138.105469 111.109375 137.988281 110.363281 137.910156 109.609375 C 137.710938 107.414062 137.699219 105.195312 137.9375 102.988281 L 138.160156 101.335938 L 138.46875 99.6875 C 138.597656 99.144531 138.78125 98.617188 138.808594 98.035156 C 138.871094 97.457031 138.855469 96.847656 138.589844 96.09375 C 137.886719 96.417969 137.433594 96.886719 137.054688 97.386719 C 136.71875 97.910156 136.535156 98.488281 136.300781 99.050781 L 135.734375 100.789062 L 135.300781 102.570312 C 134.859375 104.714844 134.703125 106.925781 134.828125 109.117188 C 134.398438 108.78125 133.96875 108.441406 133.535156 108.109375 L 132.894531 107.613281 C 132.464844 105.964844 132.503906 104.242188 133.003906 102.613281 C 135.230469 95.417969 141.796875 74.117188 146.027344 59.695312 C 147.417969 54.957031 148.558594 50.960938 149.203125 48.457031 C 149.351562 47.886719 149.476562 47.382812 149.570312 46.976562 Z M 151.507812 241.679688 C 149.777344 241.398438 148.03125 241.207031 146.277344 241.085938 L 146.039062 238.636719 C 146.125 238.691406 146.207031 238.75 146.296875 238.796875 C 147.304688 239.375 148.394531 239.773438 149.484375 240.15625 C 151.667969 240.90625 153.917969 241.480469 156.210938 241.792969 C 157.351562 241.957031 158.519531 242.066406 159.652344 242.097656 L 162.925781 242.183594 C 163.980469 242.238281 164.996094 242.339844 165.976562 242.570312 C 166.324219 242.652344 166.660156 242.757812 167.003906 242.851562 C 167.132812 243.988281 167.289062 245.128906 167.460938 246.269531 L 160.804688 243.964844 C 157.773438 242.957031 154.664062 242.195312 151.507812 241.679688 Z M 167.171875 221.066406 C 166.226562 220.691406 165.273438 220.332031 164.308594 220 C 162.324219 219.320312 160.304688 218.722656 158.253906 218.257812 C 156.210938 217.765625 154.148438 217.375 152.074219 217.027344 C 152 217.015625 151.921875 217.003906 151.847656 216.992188 C 150.886719 216.84375 149.925781 216.671875 148.945312 216.636719 C 148.761719 216.632812 148.574219 216.636719 148.390625 216.644531 C 148.625 216.121094 148.914062 215.632812 149.1875 215.136719 C 149.402344 214.738281 149.644531 214.363281 149.894531 213.996094 C 149.964844 214.015625 150.03125 214.035156 150.097656 214.058594 C 150.539062 214.1875 150.984375 214.304688 151.425781 214.367188 C 152.308594 214.503906 153.195312 214.515625 154.078125 214.585938 C 155.847656 214.707031 157.609375 214.902344 159.367188 215.117188 C 161.117188 215.359375 162.859375 215.617188 164.597656 215.910156 C 165.460938 216.078125 166.335938 216.21875 167.191406 216.417969 C 167.570312 216.496094 167.941406 216.589844 168.335938 216.628906 C 168.164062 217.128906 168.003906 217.632812 167.859375 218.140625 C 167.585938 219.109375 167.355469 220.085938 167.171875 221.066406 Z M 166.363281 234.339844 C 166.230469 234.308594 166.097656 234.277344 165.964844 234.25 C 164.882812 233.976562 163.792969 233.714844 162.707031 233.464844 C 160.53125 232.972656 158.351562 232.511719 156.152344 232.128906 C 153.96875 231.714844 151.757812 231.339844 149.578125 230.960938 C 149.214844 230.898438 148.871094 230.820312 148.523438 230.746094 C 147.859375 230.601562 147.21875 230.445312 146.621094 230.285156 C 146.320312 230.199219 146.023438 230.117188 145.730469 230.027344 L 145.785156 228.203125 C 145.785156 228.199219 145.785156 228.195312 145.785156 228.191406 C 145.828125 227.429688 145.945312 226.675781 146.023438 225.917969 C 146.238281 226.011719 146.449219 226.101562 146.664062 226.183594 C 146.859375 226.257812 147.058594 226.328125 147.253906 226.386719 C 148.1875 226.671875 149.152344 226.796875 150.105469 226.964844 C 152.023438 227.277344 153.941406 227.554688 155.871094 227.757812 C 157.800781 227.984375 159.738281 228.09375 161.679688 228.132812 C 162.652344 228.152344 163.621094 228.148438 164.589844 228.125 C 165.078125 228.101562 165.5625 228.136719 166.050781 228.007812 C 166.167969 227.972656 166.289062 227.933594 166.40625 227.886719 C 166.324219 229.535156 166.300781 231.179688 166.324219 232.820312 C 166.332031 233.328125 166.347656 233.832031 166.363281 234.339844 Z M 145.925781 235.707031 C 145.886719 235.703125 145.851562 235.691406 145.816406 235.683594 C 145.78125 234.808594 145.75 233.929688 145.707031 233.054688 C 146.816406 233.578125 147.960938 233.785156 149.03125 233.992188 C 151.242188 234.386719 153.425781 234.777344 155.628906 235.136719 C 157.824219 235.519531 160.03125 235.824219 162.246094 236.101562 C 163.355469 236.234375 164.464844 236.359375 165.574219 236.472656 C 165.871094 236.507812 166.167969 236.546875 166.464844 236.5625 C 166.488281 236.957031 166.503906 237.355469 166.53125 237.746094 C 166.59375 238.65625 166.667969 239.558594 166.753906 240.457031 C 166.722656 240.449219 166.699219 240.4375 166.667969 240.425781 C 165.539062 239.972656 164.351562 239.703125 163.203125 239.527344 C 162.050781 239.347656 160.921875 239.261719 159.839844 239.160156 C 158.761719 239.054688 157.71875 238.929688 156.664062 238.769531 C 154.570312 238.433594 152.496094 237.929688 150.488281 237.242188 C 149.476562 236.910156 148.503906 236.484375 147.492188 236.148438 C 146.984375 235.980469 146.460938 235.84375 145.925781 235.707031 Z M 151.5625 220.070312 C 153.578125 220.410156 155.582031 220.816406 157.582031 221.238281 L 163.582031 222.566406 L 166.582031 223.253906 C 166.660156 223.269531 166.734375 223.292969 166.808594 223.308594 C 166.675781 224.308594 166.578125 225.304688 166.5 226.296875 C 165.914062 226 165.316406 225.941406 164.71875 225.871094 L 161.886719 225.472656 C 160 225.214844 158.121094 224.945312 156.234375 224.722656 C 154.351562 224.46875 152.472656 224.21875 150.59375 223.921875 C 149.699219 223.789062 148.8125 223.609375 147.902344 223.539062 C 147.859375 223.539062 147.816406 223.53125 147.773438 223.527344 C 147.304688 223.492188 146.824219 223.507812 146.34375 223.539062 L 146.765625 221.382812 C 146.949219 220.644531 147.191406 219.929688 147.398438 219.207031 C 147.402344 219.191406 147.40625 219.179688 147.410156 219.167969 C 147.785156 219.300781 148.164062 219.425781 148.546875 219.519531 C 149 219.632812 149.457031 219.71875 149.914062 219.796875 C 150.464844 219.890625 151.015625 219.972656 151.5625 220.070312 Z M 170.242188 212.554688 C 169.78125 213.289062 169.378906 214.050781 169.03125 214.828125 C 168.667969 214.574219 168.269531 214.40625 167.867188 214.265625 C 167.003906 213.894531 166.117188 213.605469 165.230469 213.316406 C 163.445312 212.78125 161.628906 212.347656 159.796875 212.089844 C 157.964844 211.808594 156.125 211.632812 154.28125 211.511719 C 153.5625 211.472656 152.839844 211.414062 152.117188 211.433594 C 152.277344 211.285156 152.4375 211.140625 152.601562 211 L 153.445312 210.386719 C 153.738281 210.222656 154.03125 210.023438 154.328125 209.882812 C 154.507812 209.792969 154.722656 209.699219 154.894531 209.628906 C 156.148438 209.808594 157.402344 209.996094 158.65625 210.179688 C 160.417969 210.4375 162.1875 210.683594 163.957031 210.902344 C 165.535156 211.085938 167.121094 211.222656 168.710938 211.328125 C 169.480469 211.347656 170.238281 211.449219 171.011719 211.445312 C 170.742188 211.808594 170.480469 212.175781 170.242188 212.554688 Z M 147.039062 212.707031 C 147.011719 212.75 146.988281 212.796875 146.960938 212.839844 C 146.976562 212.792969 146.992188 212.75 147.011719 212.703125 C 147.023438 212.703125 147.03125 212.707031 147.039062 212.707031 Z M 191.597656 343.46875 C 192.539062 343.484375 193.484375 343.496094 194.425781 343.496094 C 208.359375 343.480469 222.339844 341.6875 235.746094 337.746094 C 242.367188 335.777344 248.859375 333.335938 255.035156 330.214844 C 255.105469 330.179688 255.175781 330.144531 255.246094 330.109375 C 256.167969 329.640625 257.078125 329.148438 257.984375 328.644531 C 257.957031 328.835938 257.9375 329.027344 257.910156 329.21875 C 257.046875 329.757812 256.089844 330.335938 255.0625 330.941406 C 255.0625 330.941406 225.621094 349.890625 191.597656 349.890625 C 157.578125 349.890625 128.132812 330.941406 128.132812 330.941406 C 122.183594 327.445312 118.9375 324.871094 118.9375 324.871094 L 118.984375 320.101562 C 119.476562 320.546875 119.976562 320.980469 120.488281 321.394531 C 121.835938 322.503906 123.246094 323.535156 124.699219 324.5 C 125.871094 325.285156 127.078125 326.015625 128.296875 326.722656 C 130.089844 327.765625 131.925781 328.738281 133.78125 329.667969 C 140.019531 332.777344 146.519531 335.351562 153.179688 337.417969 C 165.613281 341.226562 178.597656 343.21875 191.597656 343.46875 Z M 261.332031 326.691406 C 261.464844 326.613281 261.597656 326.535156 261.726562 326.453125 L 261.679688 326.742188 C 261.554688 326.828125 261.441406 326.910156 261.304688 327.003906 C 261.316406 326.898438 261.320312 326.796875 261.332031 326.691406 Z M 201.628906 318.472656 C 223.992188 317.3125 242.507812 310.550781 254.058594 305.113281 C 258.4375 303.050781 261.8125 301.183594 264.015625 299.886719 L 264.089844 307.375 L 263.625 305.652344 C 263.410156 304.992188 263.25 304.316406 262.933594 303.6875 C 262.585938 303.070312 262.160156 302.476562 261.460938 301.980469 C 260.867188 303.582031 261.171875 304.851562 261.425781 306.160156 L 261.722656 308.128906 L 261.96875 310.105469 C 262.253906 312.734375 262.378906 315.375 262.386719 318.011719 C 262.375 319.789062 262.285156 321.570312 262.113281 323.34375 C 261.921875 323.449219 261.726562 323.558594 261.535156 323.664062 C 261.621094 321.730469 261.5625 319.796875 261.386719 317.875 L 261.214844 316.339844 L 260.988281 314.820312 C 260.886719 314.3125 260.847656 313.804688 260.640625 313.316406 C 260.417969 312.824219 260.113281 312.347656 259.527344 311.921875 C 258.632812 313.054688 258.703125 314.023438 258.738281 315.015625 L 258.714844 317.980469 C 258.679688 319.949219 258.585938 321.910156 258.472656 323.867188 C 258.4375 324.367188 258.386719 324.863281 258.339844 325.363281 C 257.207031 325.949219 256.0625 326.511719 254.910156 327.058594 C 254.597656 327.207031 254.285156 327.359375 253.96875 327.507812 C 247.804688 330.417969 241.417969 332.84375 234.878906 334.796875 C 224.082031 337.980469 212.886719 339.742188 201.628906 340.28125 Z M 321.046875 247.875 C 320.96875 247.246094 320.882812 246.621094 320.785156 245.996094 L 320.085938 242.304688 L 319.089844 238.683594 L 318.152344 236.007812 L 317.847656 235.140625 C 317.355469 233.992188 316.863281 232.84375 316.34375 231.707031 L 314.570312 228.402344 L 312.5625 225.246094 C 311.8125 224.253906 311.097656 223.222656 310.257812 222.304688 C 309.339844 221.445312 308.355469 220.644531 307.183594 220.058594 C 307.570312 221.347656 308.136719 222.421875 308.773438 223.4375 C 309.339844 224.507812 310.03125 225.472656 310.679688 226.46875 L 312.421875 229.582031 L 313.921875 232.8125 C 314.339844 233.925781 314.777344 235.023438 315.214844 236.125 L 316.289062 239.511719 L 316.964844 242.285156 L 317.128906 242.964844 L 317.765625 246.453125 C 318.441406 251.109375 318.519531 255.851562 317.929688 260.511719 C 317.890625 260.621094 317.851562 260.730469 317.8125 260.839844 C 317.847656 259.691406 317.847656 258.542969 317.804688 257.394531 L 317.601562 254.097656 L 317.160156 250.828125 L 316.527344 247.589844 C 316.410156 247.128906 316.285156 246.664062 316.160156 246.203125 C 316.007812 245.605469 315.855469 245 315.6875 244.402344 L 314.628906 241.285156 L 313.382812 238.246094 C 312.898438 237.261719 312.460938 236.253906 311.875 235.328125 C 311.226562 234.433594 310.5 233.578125 309.539062 232.890625 C 309.578125 234.097656 309.847656 235.140625 310.195312 236.144531 C 310.480469 237.167969 310.917969 238.121094 311.304688 239.09375 L 312.304688 242.074219 L 313.121094 245.101562 C 313.324219 246.128906 313.550781 247.144531 313.777344 248.164062 L 314.273438 251.253906 L 314.507812 253.613281 L 314.585938 254.363281 L 314.753906 257.484375 C 314.847656 261.644531 314.496094 265.820312 313.640625 269.894531 L 313.359375 271.0625 C 310.269531 276.953125 306.964844 281.40625 304.601562 284.230469 C 302.652344 286.558594 301.347656 287.785156 301.347656 287.785156 C 301.347656 287.785156 305.199219 273.945312 301.769531 265.273438 C 301.707031 265.421875 301.640625 265.566406 301.578125 265.710938 C 301.230469 269.832031 298.636719 288.90625 280.078125 294.378906 C 280.089844 294.371094 280.101562 294.367188 280.113281 294.355469 C 281.246094 293.582031 282.308594 292.621094 282.9375 291.410156 C 281.929688 292.300781 280.757812 292.886719 279.585938 293.386719 C 278.394531 293.875 277.167969 294.226562 275.917969 294.496094 C 273.429688 295.035156 270.855469 295.25 268.277344 295.199219 C 263.328125 295.097656 258.40625 294.097656 253.578125 292.796875 C 253.363281 292.738281 253.148438 292.6875 252.9375 292.628906 C 244.144531 290.089844 235.605469 286.566406 227.332031 282.492188 C 226.273438 281.304688 225.316406 280.027344 224.433594 278.703125 C 223.570312 277.355469 222.75 275.984375 222.011719 274.550781 C 221.648438 273.832031 221.296875 273.105469 220.957031 272.367188 C 220.652344 271.609375 220.398438 270.867188 219.1875 270.304688 C 218.78125 270.835938 218.660156 271.320312 218.613281 271.78125 C 218.59375 272.238281 218.734375 272.652344 218.816406 273.085938 L 219.152344 274.355469 L 219.5625 275.605469 C 220.027344 276.917969 220.605469 278.191406 221.296875 279.402344 C 221.085938 279.296875 220.875 279.1875 220.664062 279.074219 C 219.433594 277.925781 218.246094 276.742188 217.136719 275.515625 C 215.683594 273.863281 214.339844 272.148438 213.28125 270.273438 C 212.75 269.335938 212.285156 268.363281 211.90625 267.355469 C 211.550781 266.320312 211.328125 265.339844 210.21875 264.28125 C 209.730469 264.890625 209.558594 265.53125 209.507812 266.15625 C 209.464844 266.785156 209.617188 267.382812 209.738281 267.984375 C 210.003906 269.179688 210.398438 270.347656 210.890625 271.464844 C 211.390625 272.589844 211.984375 273.660156 212.652344 274.671875 C 207.722656 271.867188 202.859375 268.925781 198.058594 265.886719 C 198.035156 265.832031 198.007812 265.78125 197.988281 265.726562 C 197.75 265.226562 197.519531 264.730469 197.238281 264.273438 C 196.964844 263.8125 196.695312 263.355469 196.394531 262.917969 C 196.097656 262.476562 195.835938 262.015625 195.554688 261.566406 C 194.472656 259.75 193.59375 257.832031 192.925781 255.851562 C 192.292969 253.890625 191.835938 251.875 191.597656 249.8125 C 191.597656 249.808594 191.597656 249.808594 191.597656 249.808594 C 191.59375 249.777344 191.589844 249.75 191.585938 249.722656 C 191.472656 248.671875 191.402344 247.613281 191.378906 246.542969 C 191.378906 246.324219 191.378906 246.105469 191.378906 245.886719 C 191.378906 245.035156 191.296875 244.175781 190.605469 243.175781 C 190.078125 243.589844 189.773438 244.054688 189.542969 244.539062 C 189.515625 244.597656 189.480469 244.65625 189.457031 244.71875 C 189.246094 245.269531 189.21875 245.847656 189.121094 246.414062 C 189.050781 246.988281 189.011719 247.5625 188.960938 248.140625 C 188.929688 248.71875 188.933594 249.300781 188.917969 249.882812 C 188.945312 252.207031 189.292969 254.558594 190.019531 256.789062 C 190.433594 258.140625 190.980469 259.445312 191.597656 260.710938 C 191.597656 260.710938 191.597656 260.710938 191.597656 260.714844 C 191.847656 261.226562 192.109375 261.726562 192.382812 262.222656 C 192.121094 262.046875 191.859375 261.882812 191.597656 261.707031 C 184.523438 257.066406 177.570312 252.234375 170.707031 247.273438 C 170.171875 244.082031 169.792969 240.792969 169.566406 237.539062 C 169.476562 236.242188 169.421875 234.949219 169.382812 233.652344 C 169.324219 231.484375 169.339844 229.316406 169.476562 227.171875 C 169.664062 224.277344 170.054688 221.394531 170.847656 218.699219 C 170.996094 218.203125 171.148438 217.710938 171.324219 217.230469 C 172.382812 214.300781 174.164062 211.683594 176.753906 210.554688 C 181.699219 211.855469 186.644531 213.128906 191.597656 214.386719 C 195.089844 215.277344 198.578125 216.160156 202.074219 217.027344 C 210.703125 219.179688 219.355469 221.226562 228.042969 223.152344 C 232.386719 224.113281 236.742188 225.039062 241.125 225.878906 C 243.3125 226.300781 245.511719 226.6875 247.726562 227.035156 C 248.386719 227.136719 249.046875 227.230469 249.707031 227.320312 C 249.933594 227.367188 250.160156 227.410156 250.386719 227.457031 C 250.480469 227.476562 250.582031 227.484375 250.679688 227.480469 C 250.722656 227.476562 250.765625 227.464844 250.808594 227.460938 C 252.019531 227.605469 253.25 227.710938 254.519531 227.722656 C 258.816406 227.726562 263.144531 228.53125 267.382812 229.628906 C 271.636719 230.722656 275.828125 232.140625 279.996094 233.726562 C 278.121094 232.507812 276.128906 231.476562 274.109375 230.523438 C 272.082031 229.570312 269.992188 228.742188 267.867188 228.011719 C 263.695312 226.632812 259.324219 225.644531 254.824219 225.5625 C 254.726562 225.5625 254.625 225.554688 254.527344 225.554688 C 253.605469 225.53125 252.65625 225.445312 251.707031 225.332031 L 251.601562 223.328125 L 256.242188 211.492188 L 253.292969 213.097656 C 253.351562 212.964844 253.40625 212.832031 253.46875 212.703125 C 254.617188 210.347656 256.324219 208.210938 258.269531 206.332031 C 258.75 205.875 259.25 205.421875 259.757812 204.976562 C 261.332031 203.585938 263 202.234375 264.660156 200.824219 C 265.757812 199.890625 266.847656 198.925781 267.890625 197.894531 C 268.40625 197.371094 268.953125 196.878906 269.371094 196.253906 C 269.777344 195.621094 270.105469 194.914062 270.1875 194.03125 C 268.472656 194.410156 267.488281 195.3125 266.398438 196.203125 C 266.195312 196.363281 265.988281 196.515625 265.78125 196.667969 C 264.875 197.363281 263.949219 198.046875 263.011719 198.722656 C 261.890625 199.539062 260.746094 200.359375 259.617188 201.21875 C 265.722656 192.753906 273.65625 182.914062 279.222656 180.28125 C 279.222656 180.28125 256.066406 176.5 249.785156 183.71875 L 249.632812 183.304688 C 249.613281 182.867188 249.59375 182.429688 249.578125 181.992188 C 249.738281 181.777344 249.832031 181.546875 249.96875 181.328125 C 250.257812 180.828125 250.535156 180.335938 250.757812 179.828125 C 251.007812 179.324219 251.226562 178.816406 251.429688 178.296875 L 252.105469 176.777344 C 252.777344 175.34375 253.546875 173.957031 254.390625 172.617188 C 254.730469 172.078125 255.082031 171.542969 255.445312 171.015625 C 256.730469 169.207031 258.117188 167.460938 259.640625 165.824219 L 260.808594 164.617188 L 262.019531 163.445312 C 262.464844 163.046875 262.914062 162.671875 263.296875 162.183594 C 263.4375 162.003906 263.566406 161.808594 263.6875 161.59375 C 268.628906 159.625 273.492188 159.1875 273.492188 159.1875 C 273.492188 159.1875 260.511719 153.164062 253.863281 152.757812 C 254.261719 152.09375 254.664062 151.433594 255.074219 150.777344 C 255.289062 150.4375 255.515625 150.097656 255.730469 149.757812 C 256.5 148.550781 257.269531 147.351562 258.058594 146.152344 C 259.101562 144.628906 260.160156 143.140625 260.628906 141.121094 C 258.714844 141.945312 257.484375 143.371094 256.277344 144.800781 C 255.054688 146.21875 253.886719 147.695312 252.765625 149.207031 C 252.738281 149.246094 252.710938 149.289062 252.679688 149.328125 C 250.511719 152.347656 248.507812 155.519531 247.15625 159.238281 C 247.007812 159.730469 246.84375 160.199219 246.714844 160.714844 L 246.5625 161.523438 L 246.480469 162.273438 C 246.375 163.261719 246.328125 164.207031 246.292969 165.15625 C 246.230469 167.050781 246.222656 168.917969 246.242188 170.785156 C 246.273438 174.519531 246.386719 178.238281 246.527344 181.953125 C 246.585938 183.542969 246.65625 185.136719 246.726562 186.726562 L 246.726562 207.191406 L 233.5 219.882812 C 233.132812 220.136719 232.769531 220.402344 232.441406 220.714844 C 232.207031 220.933594 232 221.179688 231.796875 221.433594 C 230.734375 221.191406 229.664062 220.949219 228.601562 220.703125 C 219.96875 218.675781 211.363281 216.496094 202.757812 214.308594 C 202.382812 214.210938 202.007812 214.113281 201.628906 214.015625 L 201.628906 178.6875 C 206.964844 176.03125 211.476562 171.835938 214.488281 166.503906 C 225.9375 146.226562 249.375 113.5 279.546875 117.964844 C 303.949219 121.578125 314.0625 138.019531 318.246094 151.691406 C 318.144531 151.515625 318.050781 151.328125 317.949219 151.152344 C 316.582031 148.746094 315.023438 146.449219 313.300781 144.289062 C 311.574219 142.132812 309.726562 140.074219 307.703125 138.203125 C 305.683594 136.324219 303.539062 134.589844 301.285156 133.015625 C 299.054688 131.429688 296.671875 129.96875 293.796875 129.601562 C 295.667969 131.78125 297.84375 133.214844 299.953125 134.824219 C 302.039062 136.445312 304.007812 138.214844 305.84375 140.101562 C 307.671875 142 309.417969 143.96875 310.988281 146.078125 C 312.558594 148.183594 314 150.378906 315.292969 152.660156 C 317.855469 157.234375 319.796875 162.15625 321.023438 167.257812 C 321.042969 167.335938 321.058594 167.410156 321.074219 167.484375 C 321.214844 169.828125 321.164062 171.226562 321.164062 171.226562 C 321.164062 171.226562 311.539062 152.40625 302.761719 149.6875 C 302.761719 149.6875 311.925781 164.902344 317.429688 181.832031 L 316.882812 180.683594 C 316.296875 179.605469 315.707031 178.53125 315.097656 177.472656 L 313.113281 174.386719 L 310.945312 171.425781 C 310.160156 170.492188 309.417969 169.519531 308.546875 168.660156 C 307.617188 167.851562 306.628906 167.101562 305.449219 166.566406 C 305.855469 167.828125 306.453125 168.871094 307.109375 169.855469 C 307.714844 170.886719 308.449219 171.800781 309.136719 172.757812 L 311.050781 175.714844 L 312.785156 178.785156 C 313.296875 179.839844 313.828125 180.882812 314.363281 181.925781 L 315.773438 185.140625 L 317 188.429688 L 318.078125 191.769531 C 319.378906 196.261719 320.210938 200.890625 320.496094 205.558594 L 320.582031 208.050781 C 318.132812 207.019531 308.320312 203.355469 296.816406 205.527344 C 296.816406 205.527344 313.320312 212.714844 319.441406 228.515625 C 321.226562 233.121094 322.128906 238.457031 321.484375 244.5625 C 321.363281 245.6875 321.210938 246.789062 321.046875 247.875 Z M 288.875 79.398438 C 288.878906 79.398438 288.878906 79.402344 288.882812 79.402344 C 290.40625 80.160156 291.898438 80.914062 293.355469 81.664062 C 294.984375 82.507812 296.570312 83.34375 298.113281 84.167969 C 299.285156 84.800781 300.433594 85.425781 301.558594 86.042969 C 318.421875 95.359375 328.804688 103.035156 328.804688 103.035156 C 328.804688 103.035156 328.804688 125.796875 326.992188 156.105469 C 326.226562 152.253906 325.078125 147.972656 323.367188 143.605469 C 315.648438 123.964844 300.515625 111.917969 279.597656 108.773438 C 277.316406 108.429688 275 108.257812 272.710938 108.257812 C 266.367188 108.257812 260.367188 109.53125 254.707031 111.765625 C 254.988281 111.546875 255.257812 111.324219 255.539062 111.109375 L 257.613281 109.515625 C 258.398438 106.507812 258.324219 103.347656 257.40625 100.386719 C 253.359375 87.296875 249 73.015625 245.757812 62.113281 C 261.714844 66.949219 276.414062 73.222656 288.875 79.398438 Z M 334.824219 94.890625 C 332.660156 93.296875 293.105469 64.40625 242.398438 50.582031 C 241.722656 48.191406 241.238281 46.371094 240.984375 45.277344 C 240.574219 43.507812 239.636719 41.40625 238.308594 39.109375 C 230.363281 25.367188 207.890625 4.226562 193.613281 0.273438 C 192.953125 0.0898438 192.277344 0 191.597656 0 C 190.921875 0 190.242188 0.0898438 189.585938 0.273438 C 175.304688 4.226562 152.835938 25.367188 144.890625 39.109375 C 143.554688 41.40625 142.621094 43.507812 142.210938 45.277344 C 141.960938 46.371094 141.46875 48.191406 140.800781 50.582031 C 90.089844 64.410156 50.53125 93.296875 48.371094 94.890625 C 45.789062 96.800781 44.265625 99.824219 44.265625 103.035156 C 44.265625 106.992188 44.421875 174.003906 53.980469 231.367188 C 54.019531 237.730469 54.152344 242.859375 54.429688 245.527344 C 55.921875 259.832031 60.925781 271.433594 65.851562 279.757812 C 67.625 284.589844 69.539062 289.042969 71.613281 293.019531 C 99.761719 346.957031 186.039062 363.996094 189.699219 364.695312 C 190.324219 364.816406 190.964844 364.875 191.597656 364.875 C 192.234375 364.875 192.871094 364.816406 193.5 364.695312 C 197.15625 363.996094 283.4375 346.957031 311.582031 293.015625 C 313.671875 289.011719 315.597656 284.523438 317.382812 279.648438 C 322.300781 271.339844 327.28125 259.777344 328.769531 245.527344 C 329.046875 242.859375 329.179688 237.730469 329.214844 231.367188 C 338.777344 174.003906 338.929688 106.992188 338.929688 103.035156 C 338.929688 99.824219 337.40625 96.800781 334.824219 94.890625 "
        fill-opacity="1" fill-rule="nonzero" />
</svg>